<mxfile host="app.diagrams.net" modified="2023-04-21T06:57:20.052Z" agent="5.0 (Macintosh; Intel Mac OS X 10_15_7) AppleWebKit/537.36 (KHTML, like Gecko) Chrome/111.0.0.0 Safari/537.36" etag="DHPJc-tJu4gVn45tHS2c" version="21.0.10" type="github">
  <diagram name="Page-1" id="e7e014a7-5840-1c2e-5031-d8a46d1fe8dd">
    <mxGraphModel dx="2037" dy="1133" grid="0" gridSize="10" guides="1" tooltips="1" connect="1" arrows="1" fold="1" page="1" pageScale="1" pageWidth="1169" pageHeight="826" background="none" math="0" shadow="0">
      <root>
        <mxCell id="0" />
        <mxCell id="1" parent="0" />
        <mxCell id="2" value="隐私计算平台" style="swimlane;whiteSpace=wrap" parent="1" vertex="1">
          <mxGeometry x="164.5" y="128" width="280" height="642" as="geometry" />
        </mxCell>
        <mxCell id="7" value="数据中台租户申请" style="" parent="2" vertex="1">
          <mxGeometry x="85" y="52" width="110" height="50" as="geometry" />
        </mxCell>
        <mxCell id="nkjs4BFZQwvDryxp72s_-64" value="" style="edgeStyle=orthogonalEdgeStyle;rounded=0;orthogonalLoop=1;jettySize=auto;html=1;" edge="1" parent="2">
          <mxGeometry relative="1" as="geometry">
            <mxPoint x="140" y="362" as="sourcePoint" />
            <mxPoint x="140" y="462" as="targetPoint" />
          </mxGeometry>
        </mxCell>
        <mxCell id="8" value="登录中台" style="" parent="2" vertex="1">
          <mxGeometry x="85" y="362" width="110" height="50" as="geometry" />
        </mxCell>
        <mxCell id="nkjs4BFZQwvDryxp72s_-66" style="edgeStyle=orthogonalEdgeStyle;rounded=0;orthogonalLoop=1;jettySize=auto;html=1;entryX=0.5;entryY=0;entryDx=0;entryDy=0;entryPerimeter=0;" edge="1" parent="2" source="nkjs4BFZQwvDryxp72s_-51" target="nkjs4BFZQwvDryxp72s_-52">
          <mxGeometry relative="1" as="geometry" />
        </mxCell>
        <mxCell id="nkjs4BFZQwvDryxp72s_-51" value="下载鉴权文件" style="" vertex="1" parent="2">
          <mxGeometry x="85" y="462" width="110" height="50" as="geometry" />
        </mxCell>
        <mxCell id="nkjs4BFZQwvDryxp72s_-52" value="数据源接入" style="" vertex="1" parent="2">
          <mxGeometry x="85" y="572" width="110" height="50" as="geometry" />
        </mxCell>
        <mxCell id="3" value="数据中台" style="swimlane;whiteSpace=wrap" parent="1" vertex="1">
          <mxGeometry x="444.5" y="128" width="280" height="642" as="geometry" />
        </mxCell>
        <mxCell id="nkjs4BFZQwvDryxp72s_-58" style="edgeStyle=orthogonalEdgeStyle;rounded=0;orthogonalLoop=1;jettySize=auto;html=1;entryX=0.495;entryY=-0.08;entryDx=0;entryDy=0;entryPerimeter=0;" edge="1" parent="3">
          <mxGeometry relative="1" as="geometry">
            <mxPoint x="140.5" y="139" as="sourcePoint" />
            <mxPoint x="139.44999999999982" y="191" as="targetPoint" />
            <Array as="points">
              <mxPoint x="121" y="139" />
              <mxPoint x="121" y="160" />
              <mxPoint x="140" y="160" />
            </Array>
          </mxGeometry>
        </mxCell>
        <mxCell id="16" value="租户开通" style="" parent="3" vertex="1">
          <mxGeometry x="85.5" y="112" width="110" height="48" as="geometry" />
        </mxCell>
        <mxCell id="nkjs4BFZQwvDryxp72s_-62" style="edgeStyle=orthogonalEdgeStyle;rounded=0;orthogonalLoop=1;jettySize=auto;html=1;entryX=0.491;entryY=0;entryDx=0;entryDy=0;entryPerimeter=0;" edge="1" parent="3" source="nkjs4BFZQwvDryxp72s_-41" target="nkjs4BFZQwvDryxp72s_-54">
          <mxGeometry relative="1" as="geometry" />
        </mxCell>
        <mxCell id="nkjs4BFZQwvDryxp72s_-41" value="资源分配" style="" vertex="1" parent="3">
          <mxGeometry x="85" y="192" width="110" height="50" as="geometry" />
        </mxCell>
        <mxCell id="nkjs4BFZQwvDryxp72s_-54" value="账号生成" style="" vertex="1" parent="3">
          <mxGeometry x="85.5" y="272" width="110" height="50" as="geometry" />
        </mxCell>
        <mxCell id="nkjs4BFZQwvDryxp72s_-42" style="edgeStyle=orthogonalEdgeStyle;rounded=0;orthogonalLoop=1;jettySize=auto;html=1;entryX=0.473;entryY=0.02;entryDx=0;entryDy=0;entryPerimeter=0;" edge="1" parent="1">
          <mxGeometry relative="1" as="geometry">
            <mxPoint x="360" y="205" as="sourcePoint" />
            <mxPoint x="586.0300000000002" y="241" as="targetPoint" />
          </mxGeometry>
        </mxCell>
        <mxCell id="nkjs4BFZQwvDryxp72s_-63" style="edgeStyle=orthogonalEdgeStyle;rounded=0;orthogonalLoop=1;jettySize=auto;html=1;exitX=-0.036;exitY=0.54;exitDx=0;exitDy=0;exitPerimeter=0;" edge="1" parent="1">
          <mxGeometry relative="1" as="geometry">
            <mxPoint x="529.04" y="425" as="sourcePoint" />
            <mxPoint x="307.5" y="488" as="targetPoint" />
          </mxGeometry>
        </mxCell>
      </root>
    </mxGraphModel>
  </diagram>
</mxfile>
